<svg width="512" height="512" viewBox="0 0 512 512" xmlns="http://www.w3.org/2000/svg">
  <!-- Black Background -->
  <rect width="100%" height="100%" fill="#000000"/>
  
  <!-- Left Shape -->
  <path
    d="M210 90
       C160 90 150 130 150 170
       C150 210 190 220 210 240
       C230 260 210 280 190 280
       L190 330
       C250 330 270 290 270 250
       C270 210 230 200 210 180
       C190 160 210 140 230 140
       L230 90 Z"
    fill="#6B6B6B"
  />

  <!-- Right Shape -->
  <path
    d="M302 90
       C352 90 362 130 362 170
       C362 210 322 220 302 240
       C282 260 302 280 322 280
       L322 330
       C262 330 242 290 242 250
       C242 210 282 200 302 180
       C322 160 302 140 282 140
       L282 90 Z"
    fill="#F4B400"
  />
</svg>
